<svg width="295" height="88" viewBox="0 0 295 88" fill="none" xmlns="http://www.w3.org/2000/svg">
<rect x="2.11526" y="2.05715" width="290.464" height="83.4387" rx="36.5044" fill="#E3E5FF" stroke="#E3E5FF" stroke-width="3.47661"/>
<path d="M94.8951 33.9249C94.6146 33.211 94.9333 32.6501 95.8512 32.2422C96.1061 32.1147 96.3611 32.1147 96.616 32.2422C96.8965 32.3442 97.1514 32.5227 97.3809 32.7776C97.6103 33.0071 97.8143 33.2875 97.9927 33.619C98.1712 33.9249 98.3114 34.2053 98.4134 34.4603C98.7958 35.3271 99.191 36.2577 99.5989 37.252C100.007 38.2463 100.415 39.2661 100.823 40.3114C101.231 41.3567 101.626 42.4148 102.008 43.4856C102.416 44.5309 102.786 45.5507 103.117 46.545C103.296 46.9784 103.461 47.3608 103.614 47.6923C103.767 48.0237 103.895 48.1894 103.997 48.1894C104.124 48.1384 104.252 47.9345 104.379 47.5776C104.507 47.1951 104.672 46.7745 104.876 46.3155C105.692 44.2759 106.432 42.1216 107.095 39.8525C107.757 37.5835 108.306 35.4674 108.739 33.5042C108.943 32.6374 109.198 32.051 109.504 31.7451C109.835 31.4391 110.345 31.3499 111.034 31.4774C111.339 31.5284 111.582 31.6813 111.76 31.9363C111.939 32.1912 112.002 32.5354 111.951 32.9688C111.62 35.7988 110.995 38.616 110.077 41.4205C109.185 44.1994 108.025 47.0039 106.597 49.8339C106.393 50.2673 106.202 50.6115 106.024 50.8664C105.845 51.0959 105.667 51.2871 105.488 51.4401C105.31 51.5675 105.106 51.6695 104.876 51.746C104.672 51.797 104.418 51.8352 104.112 51.8607C103.5 51.8862 103.028 51.7715 102.697 51.5166C102.391 51.2616 102.097 50.8027 101.817 50.1398C101.307 48.8906 100.746 47.5521 100.134 46.1243C99.5479 44.6711 98.9488 43.2306 98.3369 41.8029C97.725 40.3752 97.1132 38.9857 96.5013 37.6344C95.9149 36.2832 95.3795 35.0467 94.8951 33.9249ZM126.941 50.637C126.813 50.0506 126.686 49.4132 126.558 48.7248C126.431 48.0365 126.303 47.5011 126.176 47.1186C126.099 46.8892 125.997 46.7362 125.87 46.6597C125.742 46.5577 125.577 46.494 125.373 46.4685C124.965 46.4175 124.519 46.3793 124.034 46.3538C123.575 46.3283 123.091 46.3155 122.581 46.3155C121.663 46.3155 120.847 46.3538 120.133 46.4303C119.904 46.4558 119.726 46.5195 119.598 46.6215C119.496 46.698 119.42 46.7999 119.369 46.9274C119.19 47.6158 118.999 48.3424 118.795 49.1073C118.591 49.8721 118.349 50.5477 118.068 51.1341C117.813 51.593 117.533 51.9627 117.227 52.2432C116.921 52.4981 116.551 52.6256 116.118 52.6256C115.379 52.6256 115.009 52.3579 115.009 51.8225C115.009 51.644 115.047 51.4146 115.124 51.1341C115.583 49.6299 116.042 48.062 116.5 46.4303C116.985 44.7731 117.444 43.1286 117.877 41.497C118.336 39.8398 118.757 38.2463 119.139 36.7166C119.547 35.1614 119.904 33.7464 120.21 32.4717C120.312 32.0383 120.516 31.7196 120.822 31.5156C121.128 31.2862 121.574 31.1714 122.16 31.1714C122.925 31.1714 123.677 31.3116 124.417 31.5921C125.156 31.8725 125.704 32.4207 126.061 33.2365C126.393 34.1034 126.762 35.2634 127.17 36.7166C127.578 38.1698 127.973 39.725 128.356 41.3822C128.738 43.0394 129.095 44.6966 129.426 46.3538C129.758 48.011 130.026 49.4514 130.23 50.6752C130.357 51.4911 130.319 52.001 130.115 52.2049C129.936 52.3834 129.579 52.4726 129.044 52.4726C128.585 52.4726 128.152 52.3324 127.744 52.0519C127.361 51.746 127.094 51.2743 126.941 50.637ZM125.755 43.0649C125.755 42.504 125.704 41.8921 125.602 41.2293C125.526 40.5664 125.424 39.9035 125.296 39.2406C125.169 38.5523 125.016 37.8766 124.837 37.2138C124.659 36.5509 124.48 35.9263 124.302 35.3399C124.149 34.881 123.971 34.6005 123.767 34.4985C123.563 34.3711 123.308 34.3073 123.002 34.3073C122.772 34.3073 122.543 34.3456 122.313 34.4221C122.109 34.4985 121.982 34.6388 121.931 34.8427C121.778 35.3781 121.612 36.0028 121.434 36.7166C121.255 37.4305 121.077 38.1571 120.898 38.8965C120.745 39.6103 120.592 40.2987 120.439 40.9616C120.312 41.5989 120.223 42.1343 120.172 42.5678C120.095 43.1286 120.312 43.4728 120.822 43.6003C121.383 43.7278 121.982 43.817 122.619 43.868C123.257 43.8935 123.894 43.9062 124.531 43.9062C124.99 43.9062 125.309 43.8425 125.487 43.715C125.666 43.5876 125.755 43.3709 125.755 43.0649ZM153.843 50.637C153.766 48.4189 153.664 46.1753 153.537 43.9062C153.41 41.6372 153.257 39.4191 153.078 37.252C153.053 36.7421 152.989 36.4744 152.887 36.4489C152.81 36.3979 152.67 36.6146 152.466 37.099C151.497 39.3936 150.58 41.4332 149.713 43.2179C148.871 44.977 147.979 46.6342 147.036 48.1894C146.781 48.6229 146.449 48.8396 146.041 48.8396C145.659 48.8396 145.353 48.5974 145.124 48.1129C144.384 46.2773 143.619 44.4416 142.829 42.606C142.064 40.7703 141.236 38.9219 140.343 37.0608C139.935 36.2195 139.68 36.2832 139.578 37.252C139.349 39.6231 139.221 41.8921 139.196 44.0592C139.196 46.2263 139.26 48.4061 139.387 50.5987C139.413 50.9302 139.323 51.2106 139.119 51.4401C138.941 51.6695 138.635 51.7842 138.202 51.7842C137.666 51.7842 137.297 51.6695 137.093 51.4401C136.889 51.2106 136.761 50.8409 136.71 50.331C136.455 47.3991 136.341 44.5054 136.366 41.6499C136.392 38.769 136.468 35.8625 136.595 32.9306C136.621 32.4207 136.748 32.0255 136.978 31.7451C137.233 31.4391 137.628 31.2862 138.163 31.2862C138.826 31.2862 139.425 31.3754 139.961 31.5539C140.496 31.7323 140.904 32.0765 141.185 32.5864C142.077 34.2691 142.906 35.939 143.67 37.5962C144.461 39.2534 145.187 40.9233 145.85 42.606C145.952 42.8864 146.08 43.0267 146.233 43.0267C146.386 43.0267 146.526 42.8864 146.653 42.606C147.469 41.0508 148.221 39.4956 148.91 37.9404C149.623 36.3852 150.299 34.83 150.936 33.2748C151.217 32.6119 151.51 32.1657 151.816 31.9363C152.148 31.7068 152.543 31.5921 153.002 31.5921C153.919 31.5921 154.531 31.7706 154.837 32.1275C155.169 32.4844 155.385 33.0453 155.487 33.8102C155.844 36.4617 156.112 39.1132 156.29 41.7647C156.494 44.3907 156.635 47.0167 156.711 49.6427C156.737 50.229 156.596 50.6625 156.29 50.9429C155.985 51.2234 155.475 51.3636 154.761 51.3636C154.48 51.3636 154.251 51.3126 154.072 51.2106C153.919 51.1086 153.843 50.9174 153.843 50.637ZM171.661 31.7833C173.19 31.7833 174.529 32.0638 175.676 32.6246C176.824 33.16 177.678 33.8994 178.239 34.8427C179.105 36.2959 179.539 38.1061 179.539 40.2732C179.539 42.4403 179.335 44.4289 178.927 46.2391C178.519 48.0237 177.78 49.4514 176.709 50.5222C175.816 51.4401 174.899 52.0392 173.955 52.3196C173.012 52.5746 172.03 52.7021 171.011 52.7021C169.634 52.7021 168.448 52.4344 167.454 51.899C166.485 51.3381 165.682 50.5987 165.045 49.6809C164.433 48.7376 163.974 47.654 163.668 46.4303C163.388 45.181 163.247 43.8808 163.247 42.5295C163.247 40.8978 163.464 39.4191 163.897 38.0934C164.331 36.7676 164.917 35.6458 165.657 34.728C166.422 33.7847 167.314 33.0581 168.334 32.5482C169.353 32.0383 170.462 31.7833 171.661 31.7833ZM171.47 49.9868C172.234 49.9868 172.936 49.7956 173.573 49.4132C174.21 49.0053 174.758 48.4444 175.217 47.7305C175.702 46.9912 176.071 46.0988 176.326 45.0535C176.581 44.0082 176.709 42.8355 176.709 41.5352C176.709 40.184 176.581 39.0749 176.326 38.2081C176.071 37.3412 175.714 36.6529 175.256 36.143C174.822 35.6331 174.312 35.2761 173.726 35.0722C173.139 34.8682 172.528 34.7535 171.89 34.728C170.947 34.7025 170.118 34.9447 169.404 35.4546C168.716 35.939 168.142 36.5764 167.684 37.3667C167.225 38.1571 166.88 39.0367 166.651 40.0055C166.422 40.9743 166.307 41.9176 166.307 42.8355C166.307 43.9062 166.434 44.8751 166.689 45.7419C166.97 46.6087 167.339 47.3608 167.798 47.9982C168.257 48.6356 168.793 49.1328 169.404 49.4897C170.042 49.8211 170.73 49.9868 171.47 49.9868ZM187.097 47.1569C187.836 47.8198 188.741 48.3424 189.812 48.7248C190.908 49.1073 192.068 49.2985 193.292 49.2985C194.235 49.2985 194.975 49.0818 195.51 48.6483C196.071 48.1894 196.352 47.4501 196.352 46.4303C196.352 46.0223 196.301 45.6399 196.199 45.283C196.097 44.9261 195.905 44.5946 195.625 44.2887C195.344 43.9827 194.949 43.715 194.439 43.4856C193.955 43.2306 193.318 43.0012 192.527 42.7972C192.094 42.6952 191.648 42.606 191.189 42.5295C190.73 42.4275 190.271 42.3001 189.812 42.1471C189.379 41.9941 188.958 41.8029 188.55 41.5734C188.142 41.3185 187.772 40.9871 187.441 40.5791C187.059 40.1202 186.791 39.6741 186.638 39.2406C186.51 38.8072 186.447 38.3228 186.447 37.7874C186.447 36.7421 186.612 35.837 186.944 35.0722C187.301 34.2818 187.772 33.6445 188.359 33.16C188.945 32.6501 189.646 32.2805 190.462 32.051C191.278 31.7961 192.145 31.6686 193.063 31.6686C193.904 31.6686 194.733 31.7833 195.548 32.0128C196.39 32.2422 197.155 32.5482 197.843 32.9306C198.2 33.1346 198.468 33.3513 198.646 33.5807C198.85 33.7847 198.914 34.0269 198.837 34.3073C198.71 34.6898 198.442 34.9702 198.034 35.1487C197.652 35.3016 197.155 35.2889 196.543 35.1104C196.033 34.9065 195.446 34.779 194.784 34.728C194.121 34.6515 193.585 34.6133 193.177 34.6133C192.285 34.6643 191.533 34.881 190.921 35.2634C190.309 35.6458 189.939 36.3469 189.812 37.3667C189.761 37.9786 189.889 38.5268 190.194 39.0112C190.526 39.4956 190.959 39.8525 191.495 40.082C191.852 40.2095 192.209 40.3242 192.565 40.4262C192.922 40.5026 193.305 40.5664 193.713 40.6174C194.325 40.7449 194.924 40.8978 195.51 41.0763C196.097 41.2548 196.645 41.5352 197.155 41.9176C197.563 42.1981 197.907 42.4785 198.187 42.759C198.493 43.0394 198.723 43.3581 198.876 43.715C199.054 44.0465 199.181 44.4289 199.258 44.8623C199.334 45.2957 199.373 45.7929 199.373 46.3538C199.373 47.2971 199.258 48.0875 199.029 48.7248C198.825 49.3367 198.468 49.9359 197.958 50.5222C197.473 51.0576 196.849 51.4911 196.084 51.8225C195.344 52.1539 194.478 52.3196 193.483 52.3196C192.107 52.3196 190.781 52.0774 189.506 51.593C188.231 51.1086 187.148 50.4075 186.255 49.4897C185.899 49.1328 185.682 48.7503 185.605 48.3424C185.529 47.909 185.669 47.5011 186.026 47.1186C186.306 46.7872 186.663 46.7999 187.097 47.1569Z" fill="#868686"/>
</svg>
