<svg width="295" height="88" viewBox="0 0 295 88" fill="none" xmlns="http://www.w3.org/2000/svg">
<rect x="2.11526" y="2.66677" width="290.464" height="83.4387" rx="36.5044" fill="#E3E5FF" stroke="#E3E5FF" stroke-width="3.47661"/>
<path d="M126.841 51.2468C126.765 49.0288 126.663 46.7852 126.536 44.5161C126.408 42.247 126.255 40.029 126.077 37.8619C126.051 37.352 125.987 37.0843 125.885 37.0588C125.809 37.0078 125.669 37.2245 125.465 37.7089C124.496 40.0035 123.578 42.0431 122.711 43.8277C121.87 45.5869 120.978 47.2441 120.034 48.7993C119.779 49.2327 119.448 49.4494 119.04 49.4494C118.658 49.4494 118.352 49.2072 118.122 48.7228C117.383 46.8872 116.618 45.0515 115.828 43.2159C115.063 41.3802 114.234 39.5318 113.342 37.6707C112.934 36.8293 112.679 36.8931 112.577 37.8619C112.348 40.2329 112.22 42.502 112.195 44.6691C112.195 46.8362 112.258 49.016 112.386 51.2086C112.411 51.54 112.322 51.8205 112.118 52.0499C111.94 52.2794 111.634 52.3941 111.2 52.3941C110.665 52.3941 110.295 52.2794 110.091 52.0499C109.887 51.8205 109.76 51.4508 109.709 50.9409C109.454 48.0089 109.339 45.1152 109.365 42.2598C109.39 39.3788 109.467 36.4724 109.594 33.5405C109.62 33.0306 109.747 32.6354 109.976 32.3549C110.231 32.049 110.627 31.896 111.162 31.896C111.825 31.896 112.424 31.9852 112.959 32.1637C113.495 32.3422 113.903 32.6864 114.183 33.1963C115.075 34.8789 115.904 36.5489 116.669 38.2061C117.459 39.8632 118.186 41.5332 118.849 43.2159C118.951 43.4963 119.078 43.6365 119.231 43.6365C119.384 43.6365 119.524 43.4963 119.652 43.2159C120.468 41.6607 121.22 40.1055 121.908 38.5502C122.622 36.995 123.298 35.4398 123.935 33.8846C124.215 33.2218 124.509 32.7756 124.815 32.5461C125.146 32.3167 125.541 32.202 126 32.202C126.918 32.202 127.53 32.3804 127.836 32.7374C128.167 33.0943 128.384 33.6552 128.486 34.42C128.843 37.0715 129.111 39.723 129.289 42.3745C129.493 45.0005 129.633 47.6265 129.71 50.2525C129.735 50.8389 129.595 51.2723 129.289 51.5528C128.983 51.8332 128.473 51.9734 127.759 51.9734C127.479 51.9734 127.249 51.9225 127.071 51.8205C126.918 51.7185 126.841 51.5273 126.841 51.2468ZM134.946 51.0939C134.971 50.6859 135.073 50.4565 135.252 50.4055C135.456 50.329 135.774 50.278 136.208 50.2525C136.514 50.227 136.845 50.2143 137.202 50.2143C137.584 50.2143 137.98 50.2143 138.388 50.2143C138.974 50.2143 139.293 49.9466 139.344 49.4112C139.471 47.4481 139.548 45.3575 139.573 43.1394C139.599 40.8958 139.611 38.7925 139.611 36.8293C139.611 36.3959 139.573 36.0517 139.497 35.7968C139.42 35.5163 139.14 35.3634 138.655 35.3379C138.12 35.3124 137.635 35.2869 137.202 35.2614C136.794 35.2359 136.437 35.1849 136.131 35.1084C135.366 34.8789 134.984 34.3435 134.984 33.5022C134.984 32.9413 135.379 32.6481 136.169 32.6226C137.776 32.5206 139.446 32.4697 141.179 32.4697C142.913 32.4442 144.532 32.4952 146.036 32.6226C146.52 32.6736 146.839 32.7628 146.992 32.8903C147.145 33.0178 147.209 33.2982 147.183 33.7317C147.158 34.0376 147.094 34.2798 146.992 34.4583C146.89 34.6367 146.699 34.7515 146.418 34.8025C145.883 34.9299 145.36 35.0319 144.851 35.1084C144.366 35.1594 143.856 35.2104 143.321 35.2614C142.862 35.2869 142.62 35.6183 142.594 36.2557C142.467 38.4483 142.39 40.6281 142.365 42.7952C142.339 44.9623 142.327 47.1421 142.327 49.3347C142.327 49.8191 142.53 50.0741 142.938 50.0995C144.111 50.176 145.207 50.176 146.227 50.0995C146.559 50.0741 146.775 50.1378 146.877 50.2908C146.979 50.4182 147.018 50.6604 146.992 51.0174C146.967 51.5273 146.826 51.8842 146.571 52.0882C146.342 52.2666 146.011 52.3814 145.577 52.4324C144.073 52.6363 142.581 52.7638 141.103 52.8148C139.624 52.8403 138.133 52.8148 136.628 52.7383C136.22 52.7128 135.902 52.6491 135.672 52.5471C135.443 52.4196 135.264 52.2794 135.137 52.1264C135.035 51.9479 134.971 51.7695 134.946 51.591C134.946 51.4125 134.946 51.2468 134.946 51.0939ZM162.301 40.9213C162.811 40.3604 163.143 39.723 163.296 39.0092C163.474 38.2953 163.5 37.6069 163.372 36.9441C163.245 36.3832 162.926 36.0007 162.416 35.7968C161.906 35.5673 161.396 35.3761 160.886 35.2231C160.53 35.1466 160.134 35.0957 159.701 35.0702C159.293 35.0447 158.872 35.0319 158.439 35.0319C158.006 35.0319 157.585 35.0574 157.177 35.1084C156.769 35.1339 156.412 35.1594 156.106 35.1849C155.749 35.2359 155.469 35.3379 155.265 35.4908C155.061 35.6438 154.959 36.0517 154.959 36.7146C154.908 37.352 154.87 38.0786 154.844 38.8944C154.844 39.6848 154.87 40.3732 154.921 40.9595C154.972 42.0048 155.431 42.5275 156.297 42.5275C156.833 42.5275 157.394 42.502 157.98 42.451C158.566 42.4 159.127 42.3108 159.663 42.1833C160.198 42.0558 160.695 41.8901 161.154 41.6862C161.613 41.4822 161.996 41.2272 162.301 40.9213ZM158.936 45.128C158.426 45.128 157.967 45.1535 157.559 45.2045C157.177 45.2555 156.769 45.332 156.336 45.4339C155.953 45.5359 155.698 45.6634 155.571 45.8164C155.469 45.9693 155.405 46.2625 155.38 46.6959C155.329 47.5373 155.278 48.3659 155.227 49.1817C155.201 49.9976 155.201 50.6987 155.227 51.2851C155.252 51.9479 155.112 52.4579 154.806 52.8148C154.525 53.1462 154.169 53.3247 153.735 53.3502C153.225 53.3757 152.906 53.2864 152.779 53.0825C152.652 52.853 152.55 52.3176 152.473 51.4763C152.397 50.3035 152.307 49.0542 152.205 47.7285C152.129 46.3773 152.065 45.0133 152.014 43.6365C151.963 42.2343 151.925 40.8448 151.899 39.4681C151.899 38.0658 151.938 36.7146 152.014 35.4143C152.091 34.1651 152.652 33.3747 153.697 33.0433C154.64 32.7629 155.749 32.5844 157.024 32.5079C158.299 32.4314 159.548 32.4697 160.772 32.6226C161.792 32.7501 162.658 32.9541 163.372 33.2345C164.112 33.515 164.711 33.8846 165.17 34.3435C165.629 34.8025 165.96 35.3634 166.164 36.0262C166.368 36.6891 166.483 37.4922 166.508 38.4355C166.534 39.6593 166.228 40.6791 165.59 41.4949C164.978 42.2853 164.226 42.9482 163.334 43.4836C163.105 43.611 162.977 43.764 162.952 43.9425C162.952 44.0954 163.003 44.2739 163.105 44.4779C163.818 45.8546 164.52 47.0911 165.208 48.1874C165.922 49.2837 166.725 50.4055 167.617 51.5528C167.745 51.7057 167.821 51.897 167.847 52.1264C167.898 52.3304 167.847 52.5088 167.694 52.6618C167.362 52.9932 166.954 53.21 166.47 53.3119C166.011 53.3884 165.603 53.2737 165.246 52.9678C164.226 52.0244 163.385 51.0429 162.722 50.0231C162.085 49.0033 161.473 47.9197 160.886 46.7724C160.683 46.39 160.504 46.0841 160.351 45.8546C160.224 45.6252 160.096 45.4594 159.969 45.3575C159.841 45.2555 159.688 45.1917 159.51 45.1662C159.357 45.1407 159.166 45.128 158.936 45.128ZM183.595 51.2468C183.468 50.6604 183.34 50.0231 183.213 49.3347C183.085 48.6463 182.958 48.1109 182.83 47.7285C182.754 47.499 182.652 47.3461 182.524 47.2696C182.397 47.1676 182.231 47.1039 182.027 47.0784C181.619 47.0274 181.173 46.9891 180.689 46.9636C180.23 46.9382 179.745 46.9254 179.236 46.9254C178.318 46.9254 177.502 46.9636 176.788 47.0401C176.559 47.0656 176.38 47.1294 176.253 47.2313C176.151 47.3078 176.074 47.4098 176.023 47.5373C175.845 48.2257 175.653 48.9523 175.449 49.7171C175.246 50.482 175.003 51.1576 174.723 51.744C174.468 52.2029 174.187 52.5726 173.882 52.853C173.576 53.108 173.206 53.2355 172.772 53.2355C172.033 53.2355 171.663 52.9678 171.663 52.4324C171.663 52.2539 171.702 52.0244 171.778 51.744C172.237 50.2398 172.696 48.6718 173.155 47.0401C173.639 45.3829 174.098 43.7385 174.532 42.1068C174.991 40.4496 175.411 38.8562 175.794 37.3265C176.202 35.7713 176.559 34.3563 176.864 33.0815C176.966 32.6481 177.17 32.3294 177.476 32.1255C177.782 31.896 178.228 31.7813 178.815 31.7813C179.58 31.7813 180.332 31.9215 181.071 32.202C181.811 32.4824 182.359 33.0306 182.716 33.8464C183.047 34.7132 183.417 35.8733 183.825 37.3265C184.233 38.7797 184.628 40.3349 185.01 41.9921C185.393 43.6493 185.75 45.3065 186.081 46.9636C186.412 48.6208 186.68 50.0613 186.884 51.2851C187.012 52.1009 186.973 52.6108 186.769 52.8148C186.591 52.9932 186.234 53.0825 185.699 53.0825C185.24 53.0825 184.806 52.9423 184.398 52.6618C184.016 52.3559 183.748 51.8842 183.595 51.2468ZM182.41 43.6748C182.41 43.1139 182.359 42.502 182.257 41.8391C182.18 41.1762 182.078 40.5134 181.951 39.8505C181.823 39.1621 181.67 38.4865 181.492 37.8236C181.313 37.1608 181.135 36.5361 180.956 35.9497C180.803 35.4908 180.625 35.2104 180.421 35.1084C180.217 34.9809 179.962 34.9172 179.656 34.9172C179.427 34.9172 179.197 34.9554 178.968 35.0319C178.764 35.1084 178.636 35.2486 178.585 35.4526C178.432 35.988 178.267 36.6126 178.088 37.3265C177.91 38.0403 177.731 38.767 177.553 39.5063C177.4 40.2202 177.247 40.9085 177.094 41.5714C176.966 42.2088 176.877 42.7442 176.826 43.1776C176.75 43.7385 176.966 44.0827 177.476 44.2102C178.037 44.3376 178.636 44.4269 179.274 44.4779C179.911 44.5034 180.549 44.5161 181.186 44.5161C181.645 44.5161 181.963 44.4524 182.142 44.3249C182.32 44.1974 182.41 43.9807 182.41 43.6748Z" fill="#868686"/>
</svg>
