<svg width="174" height="52" viewBox="0 0 174 52" fill="none" xmlns="http://www.w3.org/2000/svg">
<rect x="0.94063" y="0.94063" width="172.119" height="49.5687" rx="19.7532" fill="#E3E5FF" stroke="#E3E5FF" stroke-width="1.88126"/>
<path d="M45.1805 29.5136C44.5785 29.2728 44.0902 28.9651 43.7156 28.5905C43.3544 28.216 43.0668 27.8213 42.8527 27.4066C42.6521 26.9785 42.5116 26.5504 42.4313 26.1223C42.3644 25.6942 42.331 25.3063 42.331 24.9584C42.331 24.1023 42.4848 23.333 42.7925 22.6508C43.1136 21.9685 43.535 21.3866 44.0567 20.905C44.5785 20.4234 45.1738 20.0555 45.8427 19.8013C46.5249 19.5471 47.2273 19.42 47.9497 19.42C48.4313 19.42 48.8259 19.4802 49.1336 19.6006C49.4413 19.721 49.5952 19.8749 49.5952 20.0622C49.5952 20.3565 49.5149 20.5705 49.3544 20.7043C49.1938 20.8381 48.9263 20.9116 48.5517 20.925C47.2139 20.9518 46.1437 21.3063 45.341 21.9886C44.5517 22.6708 44.1571 23.6942 44.1571 25.0588C44.1571 25.6474 44.2507 26.1424 44.438 26.5437C44.6387 26.9451 44.8995 27.2728 45.2206 27.527C45.5551 27.7678 45.943 27.9417 46.3845 28.0487C46.8259 28.1558 47.2942 28.2093 47.7892 28.2093C48.0433 28.2093 48.2975 28.1959 48.5517 28.1691C48.8192 28.129 49.0734 28.0755 49.3142 28.0086C49.5283 27.9417 49.7089 27.935 49.856 27.9885C50.0166 28.042 50.0968 28.1825 50.0968 28.4099C50.0968 28.7845 49.9965 29.0654 49.7958 29.2527C49.6085 29.4266 49.3276 29.5671 48.953 29.6741C48.4179 29.8347 47.8025 29.9082 47.1069 29.8949C46.4246 29.8815 45.7825 29.7544 45.1805 29.5136ZM57.3091 19.0789C58.1118 19.0789 58.8141 19.226 59.4161 19.5203C60.0181 19.8013 60.4663 20.1892 60.7606 20.6842C61.2154 21.4468 61.4429 22.3966 61.4429 23.5337C61.4429 24.6708 61.3358 25.7143 61.1218 26.6641C60.9078 27.6006 60.5198 28.3497 59.9579 28.9116C59.4897 29.3932 59.0081 29.7076 58.5131 29.8547C58.0181 29.9885 57.5031 30.0554 56.968 30.0554C56.2456 30.0554 55.6235 29.9149 55.1018 29.634C54.5934 29.3397 54.172 28.9517 53.8376 28.4701C53.5165 27.9751 53.2757 27.4066 53.1152 26.7645C52.968 26.1089 52.8944 25.4267 52.8944 24.7176C52.8944 23.8615 53.0081 23.0855 53.2356 22.3899C53.463 21.6942 53.7707 21.1056 54.1586 20.624C54.56 20.129 55.0282 19.7478 55.5633 19.4802C56.0984 19.2127 56.6804 19.0789 57.3091 19.0789ZM57.2088 28.6307C57.6101 28.6307 57.978 28.5303 58.3125 28.3297C58.6469 28.1156 58.9345 27.8213 59.1753 27.4467C59.4295 27.0588 59.6235 26.5905 59.7573 26.0421C59.891 25.4936 59.9579 24.8782 59.9579 24.1959C59.9579 23.4869 59.891 22.9049 59.7573 22.4501C59.6235 21.9953 59.4362 21.634 59.1954 21.3665C58.968 21.0989 58.7004 20.9116 58.3927 20.8046C58.085 20.6976 57.764 20.6374 57.4295 20.624C56.9345 20.6106 56.4998 20.7377 56.1252 21.0053C55.764 21.2595 55.463 21.5939 55.2222 22.0086C54.9814 22.4233 54.8008 22.8849 54.6804 23.3932C54.56 23.9016 54.4998 24.3966 54.4998 24.8782C54.4998 25.44 54.5667 25.9484 54.7004 26.4033C54.8476 26.8581 55.0416 27.2527 55.2824 27.5872C55.5232 27.9216 55.8041 28.1825 56.1252 28.3698C56.4596 28.5437 56.8208 28.6307 57.2088 28.6307ZM71.1478 26.7645C71.2816 26.9919 71.3686 27.0989 71.4087 27.0855C71.4488 27.0588 71.4756 26.9116 71.489 26.6441C71.5425 25.4936 71.5492 24.2896 71.509 23.032C71.4689 21.7745 71.3752 20.5705 71.2281 19.42C71.2013 19.1926 71.2214 19.0521 71.2883 18.9986C71.3686 18.9317 71.5224 18.8983 71.7498 18.8983C71.9772 18.8983 72.1846 18.9585 72.3719 19.0789C72.5726 19.1859 72.6863 19.3598 72.713 19.6006C72.9405 21.1391 73.0876 22.6641 73.1545 24.1758C73.2214 25.6875 73.1612 27.2126 72.9739 28.7511C72.9338 29.0588 72.7866 29.2795 72.5324 29.4133C72.2916 29.547 72.0174 29.6139 71.7097 29.6139C71.4956 29.6139 71.3017 29.5604 71.1278 29.4534C70.9672 29.333 70.8 29.119 70.6261 28.8113C70.1579 27.9952 69.6428 27.0454 69.0809 25.9618C68.5191 24.8648 67.897 23.6273 67.2147 22.2494C66.9873 21.7946 66.8535 21.828 66.8134 22.3498C66.7866 22.6976 66.7666 23.1324 66.7532 23.6541C66.7398 24.1625 66.7331 24.7176 66.7331 25.3196C66.7331 25.9083 66.7398 26.517 66.7532 27.1457C66.78 27.7745 66.8134 28.3765 66.8535 28.9517C66.8803 29.3397 66.8335 29.6273 66.7131 29.8146C66.606 29.9885 66.3652 30.0755 65.9907 30.0755C65.8301 30.0755 65.7164 30.0019 65.6495 29.8547C65.596 29.7076 65.5559 29.5604 65.5291 29.4133C65.4355 28.7979 65.3552 28.1223 65.2883 27.3865C65.2348 26.6507 65.188 25.8949 65.1479 25.119C65.1211 24.3431 65.101 23.5605 65.0877 22.7712C65.0877 21.9685 65.101 21.1993 65.1278 20.4635C65.1412 19.7277 65.4823 19.3598 66.1512 19.3598C66.5258 19.3598 66.8201 19.4066 67.0341 19.5003C67.2482 19.5939 67.4288 19.7545 67.5759 19.9819C68.1378 20.9986 68.7131 22.0822 69.3017 23.2327C69.9037 24.3698 70.5191 25.5471 71.1478 26.7645ZM81.1188 19.0789C81.9215 19.0789 82.6238 19.226 83.2258 19.5203C83.8278 19.8013 84.276 20.1892 84.5703 20.6842C85.0251 21.4468 85.2526 22.3966 85.2526 23.5337C85.2526 24.6708 85.1455 25.7143 84.9315 26.6641C84.7174 27.6006 84.3295 28.3497 83.7676 28.9116C83.2994 29.3932 82.8178 29.7076 82.3228 29.8547C81.8278 29.9885 81.3128 30.0554 80.7777 30.0554C80.0553 30.0554 79.4332 29.9149 78.9115 29.634C78.4031 29.3397 77.9817 28.9517 77.6473 28.4701C77.3262 27.9751 77.0854 27.4066 76.9249 26.7645C76.7777 26.1089 76.7041 25.4267 76.7041 24.7176C76.7041 23.8615 76.8178 23.0855 77.0453 22.3899C77.2727 21.6942 77.5804 21.1056 77.9683 20.624C78.3697 20.129 78.8379 19.7478 79.373 19.4802C79.9081 19.2127 80.49 19.0789 81.1188 19.0789ZM81.0185 28.6307C81.4198 28.6307 81.7877 28.5303 82.1221 28.3297C82.4566 28.1156 82.7442 27.8213 82.985 27.4467C83.2392 27.0588 83.4332 26.5905 83.567 26.0421C83.7007 25.4936 83.7676 24.8782 83.7676 24.1959C83.7676 23.4869 83.7007 22.9049 83.567 22.4501C83.4332 21.9953 83.2459 21.634 83.0051 21.3665C82.7777 21.0989 82.5101 20.9116 82.2024 20.8046C81.8947 20.6976 81.5737 20.6374 81.2392 20.624C80.7442 20.6106 80.3094 20.7377 79.9349 21.0053C79.5737 21.2595 79.2727 21.5939 79.0319 22.0086C78.7911 22.4233 78.6105 22.8849 78.4901 23.3932C78.3697 23.9016 78.3095 24.3966 78.3095 24.8782C78.3095 25.44 78.3763 25.9484 78.5101 26.4033C78.6573 26.8581 78.8513 27.2527 79.0921 27.5872C79.3329 27.9216 79.6138 28.1825 79.9349 28.3698C80.2693 28.5437 80.6305 28.6307 81.0185 28.6307ZM80.4365 17.6742C80.3563 17.5939 80.363 17.4735 80.4566 17.313C80.7108 16.8983 80.9382 16.4702 81.1389 16.0287C81.3395 15.5739 81.5135 15.1123 81.6606 14.6441C81.6874 14.5371 81.7543 14.4836 81.8613 14.4836C81.9817 14.4836 82.0887 14.497 82.1823 14.5237C82.4098 14.604 82.577 14.7244 82.684 14.8849C82.791 15.0455 82.771 15.313 82.6238 15.6876C82.5168 15.9953 82.3228 16.3565 82.0419 16.7712C81.7743 17.1859 81.3931 17.507 80.8981 17.7344C80.6974 17.8281 80.5436 17.808 80.4365 17.6742ZM91.5261 29.5136C90.9241 29.2728 90.4358 28.9651 90.0612 28.5905C89.7 28.216 89.4124 27.8213 89.1984 27.4066C88.9977 26.9785 88.8572 26.5504 88.7769 26.1223C88.7101 25.6942 88.6766 25.3063 88.6766 24.9584C88.6766 24.1023 88.8305 23.333 89.1382 22.6508C89.4592 21.9685 89.8806 21.3866 90.4024 20.905C90.9241 20.4234 91.5194 20.0555 92.1883 19.8013C92.8706 19.5471 93.5729 19.42 94.2953 19.42C94.7769 19.42 95.1716 19.4802 95.4793 19.6006C95.7869 19.721 95.9408 19.8749 95.9408 20.0622C95.9408 20.3565 95.8605 20.5705 95.7 20.7043C95.5395 20.8381 95.2719 20.9116 94.8973 20.925C93.5595 20.9518 92.4893 21.3063 91.6866 21.9886C90.8973 22.6708 90.5027 23.6942 90.5027 25.0588C90.5027 25.6474 90.5963 26.1424 90.7836 26.5437C90.9843 26.9451 91.2452 27.2728 91.5662 27.527C91.9007 27.7678 92.2886 27.9417 92.7301 28.0487C93.1716 28.1558 93.6398 28.2093 94.1348 28.2093C94.389 28.2093 94.6431 28.1959 94.8973 28.1691C95.1649 28.129 95.4191 28.0755 95.6599 28.0086C95.8739 27.9417 96.0545 27.935 96.2017 27.9885C96.3622 28.042 96.4425 28.1825 96.4425 28.4099C96.4425 28.7845 96.3421 29.0654 96.1415 29.2527C95.9542 29.4266 95.6732 29.5671 95.2987 29.6741C94.7635 29.8347 94.1482 29.9082 93.4525 29.8949C92.7702 29.8815 92.1281 29.7544 91.5261 29.5136ZM99.5611 27.8681C99.3738 26.7176 99.2869 25.5136 99.3002 24.2561C99.327 22.9986 99.4742 21.828 99.7417 20.7444C99.822 20.41 99.9156 20.1357 100.023 19.9217C100.13 19.7076 100.27 19.5337 100.444 19.3999C100.631 19.2528 100.865 19.1458 101.146 19.0789C101.427 18.9986 101.775 18.9384 102.19 18.8983C103.661 18.7511 104.966 18.7311 106.103 18.8381C106.263 18.8515 106.391 18.9117 106.484 19.0187C106.578 19.1257 106.611 19.2996 106.584 19.5404C106.558 19.808 106.431 20.0153 106.203 20.1625C105.976 20.2963 105.688 20.3632 105.34 20.3632C104.885 20.3632 104.344 20.3899 103.715 20.4434C103.086 20.4836 102.518 20.5438 102.009 20.624C101.782 20.6508 101.621 20.7511 101.528 20.925C101.434 21.0989 101.367 21.2728 101.327 21.4468C101.287 21.5805 101.247 21.7678 101.207 22.0086C101.18 22.2361 101.153 22.4635 101.126 22.6909C101.113 22.8916 101.14 23.0655 101.207 23.2126C101.287 23.3464 101.421 23.4133 101.608 23.4133C102.424 23.3999 103.22 23.3732 103.996 23.333C104.772 23.2929 105.421 23.2461 105.942 23.1926C106.183 23.1658 106.344 23.1926 106.424 23.2728C106.518 23.3531 106.578 23.5136 106.605 23.7544C106.631 24.0621 106.571 24.2829 106.424 24.4166C106.29 24.5504 106.076 24.6307 105.782 24.6574C105.22 24.7243 104.638 24.7778 104.036 24.818C103.434 24.8581 102.919 24.8916 102.491 24.9183C102.143 24.9317 101.875 24.9584 101.688 24.9986C101.501 25.0387 101.36 25.0922 101.267 25.1591C101.173 25.2126 101.113 25.2795 101.086 25.3598C101.059 25.44 101.039 25.527 101.026 25.6206C100.986 26.0755 100.986 26.4969 101.026 26.8849C101.053 27.2461 101.166 27.4869 101.367 27.6073C101.581 27.7143 101.896 27.7812 102.31 27.8079C103.033 27.8481 103.775 27.8414 104.538 27.7879C105.314 27.721 106.063 27.5805 106.785 27.3665C106.946 27.3129 107.073 27.2929 107.166 27.3063C107.273 27.3063 107.34 27.4066 107.367 27.6073C107.407 27.9417 107.367 28.2026 107.247 28.3899C107.14 28.5772 106.972 28.7042 106.745 28.7711C105.742 29.0922 104.698 29.2728 103.615 29.3129C102.544 29.3397 101.494 29.2394 100.464 29.0119C100.13 28.945 99.9089 28.818 99.8019 28.6307C99.6949 28.43 99.6146 28.1758 99.5611 27.8681ZM119.546 28.9718C119.505 27.8079 119.452 26.6307 119.385 25.44C119.318 24.2494 119.238 23.0855 119.144 21.9484C119.131 21.6809 119.097 21.5404 119.044 21.527C119.004 21.5003 118.93 21.614 118.823 21.8682C118.315 23.0722 117.833 24.1424 117.378 25.0788C116.937 26.0019 116.469 26.8715 115.974 27.6875C115.84 27.9149 115.666 28.0287 115.452 28.0287C115.251 28.0287 115.091 27.9016 114.97 27.6474C114.582 26.6842 114.181 25.721 113.766 24.7578C113.365 23.7946 112.93 22.8247 112.462 21.8481C112.248 21.4066 112.114 21.4401 112.061 21.9484C111.94 23.1926 111.873 24.3832 111.86 25.5203C111.86 26.6574 111.893 27.8012 111.96 28.9517C111.974 29.1256 111.927 29.2728 111.82 29.3932C111.726 29.5136 111.566 29.5738 111.338 29.5738C111.057 29.5738 110.863 29.5136 110.756 29.3932C110.649 29.2728 110.582 29.0788 110.556 28.8113C110.422 27.2728 110.362 25.7544 110.375 24.2561C110.388 22.7444 110.429 21.2193 110.495 19.6809C110.509 19.4133 110.576 19.206 110.696 19.0588C110.83 18.8983 111.037 18.818 111.318 18.818C111.666 18.818 111.98 18.8648 112.261 18.9585C112.542 19.0521 112.756 19.2327 112.903 19.5003C113.372 20.3832 113.806 21.2595 114.208 22.129C114.623 22.9986 115.004 23.8748 115.352 24.7578C115.405 24.9049 115.472 24.9785 115.552 24.9785C115.633 24.9785 115.706 24.9049 115.773 24.7578C116.201 23.9417 116.596 23.1257 116.957 22.3096C117.332 21.4936 117.686 20.6775 118.021 19.8615C118.168 19.5137 118.322 19.2795 118.482 19.1591C118.656 19.0387 118.863 18.9785 119.104 18.9785C119.586 18.9785 119.907 19.0722 120.067 19.2595C120.241 19.4468 120.355 19.7411 120.408 20.1424C120.596 21.5337 120.736 22.925 120.83 24.3163C120.937 25.6942 121.01 27.0721 121.051 28.4501C121.064 28.7578 120.99 28.9852 120.83 29.1323C120.669 29.2795 120.402 29.3531 120.027 29.3531C119.88 29.3531 119.76 29.3263 119.666 29.2728C119.586 29.2193 119.546 29.119 119.546 28.9718ZM124.801 27.8681C124.614 26.7176 124.527 25.5136 124.54 24.2561C124.567 22.9986 124.714 21.828 124.982 20.7444C125.062 20.41 125.156 20.1357 125.263 19.9217C125.37 19.7076 125.51 19.5337 125.684 19.3999C125.872 19.2528 126.106 19.1458 126.387 19.0789C126.668 18.9986 127.015 18.9384 127.43 18.8983C128.902 18.7511 130.206 18.7311 131.343 18.8381C131.504 18.8515 131.631 18.9117 131.724 19.0187C131.818 19.1257 131.851 19.2996 131.825 19.5404C131.798 19.808 131.671 20.0153 131.443 20.1625C131.216 20.2963 130.928 20.3632 130.581 20.3632C130.126 20.3632 129.584 20.3899 128.955 20.4434C128.326 20.4836 127.758 20.5438 127.249 20.624C127.022 20.6508 126.862 20.7511 126.768 20.925C126.674 21.0989 126.607 21.2728 126.567 21.4468C126.527 21.5805 126.487 21.7678 126.447 22.0086C126.42 22.2361 126.393 22.4635 126.367 22.6909C126.353 22.8916 126.38 23.0655 126.447 23.2126C126.527 23.3464 126.661 23.4133 126.848 23.4133C127.664 23.3999 128.46 23.3732 129.236 23.333C130.012 23.2929 130.661 23.2461 131.183 23.1926C131.423 23.1658 131.584 23.1926 131.664 23.2728C131.758 23.3531 131.818 23.5136 131.845 23.7544C131.872 24.0621 131.811 24.2829 131.664 24.4166C131.53 24.5504 131.316 24.6307 131.022 24.6574C130.46 24.7243 129.878 24.7778 129.276 24.818C128.674 24.8581 128.159 24.8916 127.731 24.9183C127.383 24.9317 127.116 24.9584 126.928 24.9986C126.741 25.0387 126.601 25.0922 126.507 25.1591C126.413 25.2126 126.353 25.2795 126.326 25.3598C126.3 25.44 126.28 25.527 126.266 25.6206C126.226 26.0755 126.226 26.4969 126.266 26.8849C126.293 27.2461 126.407 27.4869 126.607 27.6073C126.821 27.7143 127.136 27.7812 127.55 27.8079C128.273 27.8481 129.015 27.8414 129.778 27.7879C130.554 27.721 131.303 27.5805 132.025 27.3665C132.186 27.3129 132.313 27.2929 132.407 27.3063C132.514 27.3063 132.581 27.4066 132.607 27.6073C132.647 27.9417 132.607 28.2026 132.487 28.3899C132.38 28.5772 132.213 28.7042 131.985 28.7711C130.982 29.0922 129.938 29.2728 128.855 29.3129C127.785 29.3397 126.734 29.2394 125.704 29.0119C125.37 28.945 125.149 28.818 125.042 28.6307C124.935 28.43 124.855 28.1758 124.801 27.8681Z" fill="#868686"/>
</svg>
