<svg width="467" height="318" viewBox="0 0 467 318" fill="none" xmlns="http://www.w3.org/2000/svg">
<g clip-path="url(#clip0_344_2927)">
<path d="M465 6.8999C463.1 5.3999 460.5 6.5999 452.1 9.5999C438.8 14.2999 436.8 14.3999 434.1 17.3999C431.5 20.2999 432.1 21.4999 429 26.8999C428 28.6999 425.2 33.1999 417.8 40.4999C417.6 40.6999 416.5 41.6999 415.2 42.8999C407 50.1999 396.6 56.4999 393.3 58.4999C388.9 61.0999 376.9 68.0999 359.8 75.4999C356.1 77.0999 352.9 78.3999 350.7 79.2999C351.9 74.4999 353.7 67.5999 356.3 59.1999C359.2 50.1999 361.9 43.0999 364 37.3999C369 24.2999 371.6 17.6999 372 16.7999C373.2 14.1999 373.8 11.2999 375.1 8.6999C376.1 6.5999 376.6 5.4999 376.1 4.3999C375.9 3.8999 375.5 3.3999 369.7 1.7999C367.9 1.2999 364.7 0.399902 361.6 0.399902C361.2 0.399902 360.9 0.399902 360.7 0.399902C358.7 0.499902 357.1 0.999902 355.7 1.4999C354.8 1.7999 352.2 2.8999 347.9 5.3999C344.5 7.3999 343.9 7.9999 343.6 8.5999C343.2 9.2999 343.1 9.7999 342 12.8999C341.5 14.2999 341.2 15.3999 340.9 16.1999C337.9 28.8999 334 41.2999 331 53.9999C330.4 56.3999 329.5 59.3999 327.8 65.6999C326.6 70.1999 326.3 71.2999 325.6 73.9999C324.7 77.2999 323.4 82.1999 321.7 88.1999C321.4 88.6999 321.1 89.1999 320.8 89.6999C319.4 90.3999 317.3 91.4999 314.6 92.6999C306.3 96.6999 298.5 99.8999 278.1 107.5C273.6 109.2 267.7 111.4 260.8 113.9C260.7 112.7 260.6 111 260.3 108.9C258.9 95.9999 257.9 86.6999 253.1 79.1999C247.2 69.8999 237.3 66.3999 230.9 64.0999C226.9 62.6999 219.1 60.3999 204.1 61.2999C193.5 61.8999 176.8 64.1999 157.2 72.7999C159.8 63.2999 162.7 55.7999 164.9 50.8999C170.8 37.1999 175 22.6999 180.5 8.7999C180.9 7.7999 182 4.9999 180.8 3.1999C180.2 2.2999 179.2 1.9999 176.7 1.3999C172.5 0.399902 170.4 -0.100098 169.3 -0.100098C167.9 -0.100098 167.2 -9.77516e-05 157.8 3.4999C153.7 4.9999 151.6 5.7999 150.1 7.5999C148.6 9.3999 148.2 11.2999 148.1 11.8999C146.9 16.8999 139.5 44.8999 128.7 85.5999C124.9 87.1999 119.7 89.4999 113.6 92.4999C106.1 96.1999 89.7 104.9 68.1 121.4C52.5 133.3 43 140.7 32.5 152.7C10.9 177.4 -5.59998 211.6 1.90002 218.5C5.90002 222.2 16.7 218.2 22.8 215.9C32.4 212.3 34.4 209.6 35 208.2C35.3 207.6 35.3 207.4 36.7 202.9C37.5 200.4 38.3 197.9 39.1 195.4C44.3 179.1 52.9 166.3 52.9 166.3C61.2 155.3 69.4 147.7 75.5 142.7C86.2 133.9 97.2 127.4 109.9 119.9C114.1 117.4 117.6 115.5 120 114.1C118.9 117 117.8 119.9 116.6 122.7C115.2 126.5 113.4 131.6 111.3 137.6C110.1 141.1 105.9 153.2 98.6 176.3C89.8 204.3 87.9 211.9 86.7 217.1C82.8 234.1 81.2 246.8 79.9 257.6C78.9 265.8 78.7 271.9 78.2 284.1C77.7 297.8 77.9 305.4 83 311.3C84.3 312.9 87.3 316.3 90.8 316.1C93.8 315.9 94.4 313.2 103.7 300.5C105.4 298.1 106.5 296.7 107.1 294.4C107.8 291.5 107.3 289.4 106.4 283.9C105.9 280.8 105.6 277.8 105 274.7C101.8 257.8 107.7 229.5 107.7 229.5C111.8 209.8 116.4 196 124 172.7C129.3 156.6 135.1 138 141 120C142.9 114.2 144.5 109.3 145.6 106C151.3 102.9 156.7 100.3 161.8 98.2999C169.6 95.0999 194.7 85.1999 218.3 90.4999C222.6 91.4999 226.8 92.8999 230.5 96.2999C236 101.3 237.7 107.8 238.3 110.9C238.8 113.6 239.1 115.4 239 116.7C238.9 118.1 238.6 119.1 238.4 119.8C235.9 120.7 232.3 122.1 228 123.9C214.3 129.6 199.5 135.7 184.7 146.6C174.2 154.3 151.9 171.2 143.4 200.7C143.2 201.3 143.1 201.8 143 202.2C140.5 211.5 131.5 249.4 153 267C163.4 275.5 178.5 277.1 190.1 274.1C203.4 270.7 210.8 261.5 221.1 248.9C232.1 235.4 237.6 223.1 241.2 214.9C252 190.3 255.2 168.8 257.2 154.7C258.3 146.9 258.8 140.4 259.1 136C281.2 128 290.4 124.6 294.6 122.9C295.9 122.4 301 120.4 307.9 118C309.6 117.4 310.9 116.9 311.8 116.6C311.5 117.9 311.2 119.1 310.9 120.4C309.3 125.5 307.7 130.6 306.1 135.6C304.6 140.9 302.2 149.1 298.8 158.9C296 167.2 294.9 170.7 292.2 177.8C289.1 185.9 287.5 192 284.4 204.3C278.7 226.5 276.3 243.7 275.2 252.3C274.6 257.1 275.2 252.8 273.2 276.1C271.9 290.5 271.6 294.5 273.2 300.3C275.7 309.5 282.6 317.9 286.8 317C288.5 316.6 288.9 314.9 293.3 308.5C295.6 305.1 297.7 302.4 299.1 300.7C299.9 299.6 301.2 297.8 301.8 295.3C303.2 290.1 301.3 285.4 300.8 284.1C297.4 275.2 298.9 260.2 300.5 245C300.7 242.8 301.4 235.6 303 226.3C303.5 223.6 305 215.8 308.6 202.8C310.7 195.2 311.8 192.3 315.7 180C320.7 164.5 329.6 136.2 333.4 125.6C333.8 124.4 334.5 122.7 335.7 119.4C337.6 114.4 338.3 112.7 339.2 110.6C339.9 109.1 340.4 107.9 340.8 107.1C342.3 106.4 343.8 105.8 345.3 105.1C347.7 104.2 351.4 102.9 355.8 101.4C374.4 94.7999 383.8 91.3999 390.5 88.0999C399.3 83.7999 406 79.6999 409.9 77.1999C413.2 75.0999 418.9 71.4999 425.2 66.6999C436.8 57.7999 443.5 49.9999 453.8 38.0999C460.7 30.0999 465.8 23.4999 466.7 14.5999C467.3 8.8999 465.6 7.2999 465 6.8999ZM235.3 148C233.9 160.6 231.4 170.2 228 181.9C222.3 201.8 219.5 211.8 216.2 219.8C216.2 219.8 211 232.3 203.4 246.4C203.4 246.5 203.3 246.7 203.1 246.9C202.1 248.7 199.5 253 195.2 257.6C193 259.9 191.9 261.1 190.8 261.3C184.9 262.7 175.6 250.7 171.4 239.5C165.2 222.8 170 207.1 172.1 200.7C176.6 186.7 184.4 177.9 189.4 172.1C196.9 164.6 209.2 152.5 227.2 145.6C229 144.9 232 143.8 235.8 142.8C235.7 144.1 235.6 145.9 235.3 148Z" fill="#B7CBEB"/>
</g>
<defs>
<clipPath id="clip0_344_2927">
<rect width="466.8" height="317.2" fill="white"/>
</clipPath>
</defs>
</svg>
