<svg width="86" height="88" viewBox="0 0 86 88" fill="none" xmlns="http://www.w3.org/2000/svg">
<g clip-path="url(#clip0_301_2973)">
<path d="M66.4554 25.1277C50.7568 25.1277 35.2426 25.1277 19.5439 25.1277C27.4459 31.2641 35.2162 37.2948 42.9997 43.3255C50.8095 37.2551 58.5534 31.2377 66.4554 25.1277Z" fill="#FFFEF5"/>
<path d="M84.4198 22.0462C81.7331 0.793446 66.8642 -1.2829 48.7028 0.489268C42.0914 0.806671 35.4011 0.118964 28.7371 0.714095C22.9423 1.00505 16.7655 1.28278 11.6688 4.41713C6.15054 7.67051 3.26631 13.635 2.14686 19.7715C1.13277 24.9161 0.289893 30.0474 0.224043 35.2978C-0.210566 42.1616 0.0264936 49.0255 0.619143 55.8761C1.10643 61.8539 1.67274 67.8713 3.8853 73.492C6.24273 79.2184 10.9181 82.7496 16.3441 84.9052C20.8746 86.7039 25.9187 87.5503 30.5809 87.8941C35.4011 87.9999 43.3557 88.1057 50.6519 87.7354C52.0216 87.6693 53.6415 87.5635 53.7205 87.5635C57.8691 87.1932 62.202 87.0874 66.311 86.4658C72.4614 85.5136 78.1113 83.3711 81.8384 77.2743C86.7508 69.0351 86.145 58.865 85.7368 49.6074C85.4865 40.4424 85.0519 31.2509 84.4198 22.0462ZM76.149 60.9678C76.0832 61.2587 76.0041 61.5497 75.9383 61.8406C74.9769 65.914 71.6976 68.44 67.3251 68.44C51.1129 68.44 34.9006 68.44 18.7015 68.44C18.0957 68.44 17.4899 68.4267 16.8972 68.3209C12.6828 67.5803 9.86447 64.1683 9.86447 59.804C9.8513 49.3164 9.86447 38.8289 9.86447 28.3282C9.86447 28.1562 9.86447 27.9843 9.87764 27.8124C10.0225 25.1674 11.1156 23.0249 13.1965 21.3982C14.8427 20.1286 16.726 19.6789 18.7674 19.6789C32.5827 19.6922 46.398 19.6789 60.2133 19.6789C62.6498 19.6789 65.0862 19.6657 67.5358 19.6789C71.1839 19.7186 73.8574 21.3585 75.4115 24.678C75.7671 25.4451 75.9251 26.3179 76.1622 27.1379C76.149 38.4189 76.149 49.7 76.149 60.9678Z" fill="#FFFEF5"/>
<path d="M70.7493 29.4524C70.7493 29.2275 70.7493 29.0027 70.7493 28.6589C70.4596 28.8705 70.262 29.0027 70.0776 29.135C61.7147 35.6285 53.3386 42.1088 44.9756 48.6023C43.5269 49.7265 42.447 49.7133 40.9983 48.5891C34.8479 43.8149 28.7107 39.0538 22.5603 34.2795C20.1766 32.428 17.7796 30.5765 15.2905 28.6456C15.2773 28.9366 15.251 29.1085 15.251 29.2804C15.251 39.4506 15.251 49.6075 15.251 59.7776C15.251 60.1214 15.2773 60.4785 15.3563 60.8091C15.7514 62.2771 16.8972 63.0442 18.662 63.0442C34.8743 63.0442 51.0733 63.031 67.2856 63.0574C69.2611 63.0574 70.7756 61.8539 70.7625 59.566C70.723 49.5281 70.7493 39.4902 70.7493 29.4524Z" fill="#FFFEF5"/>
</g>
<defs>
<clipPath id="clip0_301_2973">
<rect width="86" height="88" fill="white"/>
</clipPath>
</defs>
</svg>
