<svg width="86" height="88" viewBox="0 0 86 88" fill="none" xmlns="http://www.w3.org/2000/svg">
<g clip-path="url(#clip0_301_2967)">
<path d="M34.7377 51.3245C34.7377 49.1166 33.8423 47.5962 32.0383 46.7764C31.0375 46.3137 29.6285 46.0757 27.8114 46.0625H17.3955V57.393H27.6797C29.51 57.393 30.9453 57.1418 31.9593 56.6394C33.816 55.7007 34.7377 53.9291 34.7377 51.3245Z" fill="#FFFEF5"/>
<path d="M66.4321 40.9592C65.1285 39.8354 63.5088 39.2668 61.5732 39.2668C59.4794 39.2668 57.8466 39.8618 56.6878 41.0649C55.5291 42.268 54.8048 43.881 54.502 45.9303H68.6048C68.46 43.7488 67.7358 42.0962 66.4321 40.9592Z" fill="#FFFEF5"/>
<path d="M32.1568 37.958C33.3024 37.2572 33.8818 36.0144 33.8818 34.2296C33.8818 32.2464 33.1181 30.9375 31.6037 30.3029C30.3001 29.8534 28.6278 29.6418 26.5999 29.6418H17.3955V39.0156H27.6797C29.5232 39.0024 31.0112 38.6587 32.1568 37.958Z" fill="#FFFEF5"/>
<path d="M3.89787 73.4965C6.25494 79.2212 10.9296 82.7513 16.3548 84.9063C20.8846 86.7044 25.9279 87.5505 30.5893 87.8943C35.4088 88.0001 43.3623 88.1058 50.6573 87.7356C52.0268 87.6695 53.6465 87.5638 53.7255 87.5638C57.8734 87.1936 62.2056 87.0878 66.314 86.4664C72.4635 85.5145 78.1125 83.3727 81.8391 77.2777C86.7507 69.0409 86.145 58.8739 85.7368 49.6191C85.4734 40.4303 85.0521 31.2416 84.4068 22.0397C81.7206 0.793328 66.8539 -1.28239 48.6953 0.489241C42.085 0.806549 35.3957 0.119049 28.7327 0.714001C22.9388 1.00487 16.763 1.28251 11.667 4.41592C6.14959 7.66833 3.26581 13.6311 2.14653 19.7657C1.1326 24.9087 0.289849 30.0385 0.224009 35.2873C-0.210534 42.1491 0.0264897 49.0109 0.619048 55.8594C1.10626 61.8486 1.68565 67.8775 3.89787 73.4965ZM51.8424 24.6972H70.2381V28.9808H51.8424V24.6972ZM50.3808 36.8474C53.2514 33.9388 56.9911 32.4844 61.5736 32.4844C64.2993 32.4844 66.7486 32.9736 68.9345 33.952C71.1204 34.9303 72.9244 36.4904 74.3465 38.6058C75.6238 40.47 76.4665 42.6383 76.8353 45.0974C77.0591 46.5385 77.1513 48.6275 77.0986 51.3378H54.3049C54.4365 54.4977 55.5295 56.7056 57.5837 57.9748C58.8346 58.7681 60.3358 59.1515 62.1003 59.1515C63.9701 59.1515 65.4845 58.6755 66.6432 57.7104C67.2753 57.1948 67.8415 56.4676 68.3287 55.5554H76.6904C76.4666 57.4195 75.4526 59.3102 73.6486 61.2405C70.8438 64.2945 66.9198 65.8282 61.8764 65.8282C57.7154 65.8282 54.0415 64.5457 50.8548 61.9544C47.6682 59.3763 46.0749 55.1852 46.0749 49.3679C46.0617 43.934 47.497 39.7561 50.3808 36.8474ZM8.9412 22.2513H29.4042C34.5661 22.3306 38.2268 23.8378 40.3731 26.7729C41.6636 28.5842 42.322 30.7392 42.322 33.2645C42.322 35.8558 41.6636 37.9448 40.36 39.5181C39.6226 40.4039 38.556 41.2104 37.1338 41.9376C39.2934 42.7308 40.9262 43.9736 42.0191 45.6924C43.1121 47.3979 43.6651 49.4736 43.6651 51.9195C43.6651 54.4448 43.0331 56.6924 41.7821 58.702C40.9789 60.0241 39.9781 61.1479 38.7798 62.0469C37.4235 63.0914 35.8302 63.7921 33.9998 64.1755C32.1695 64.559 30.168 64.7573 28.0216 64.7573H8.9412V22.2513Z" fill="#FFFEF5"/>
</g>
<defs>
<clipPath id="clip0_301_2967">
<rect width="86" height="88" fill="white"/>
</clipPath>
</defs>
</svg>
