<svg width="86" height="88" viewBox="0 0 86 88" fill="none" xmlns="http://www.w3.org/2000/svg">
<g clip-path="url(#clip0_301_2978)">
<path d="M84.4198 22.0463C81.7331 0.793568 66.8642 -1.28278 48.7028 0.48939C42.0914 0.806793 35.4011 0.119086 28.7371 0.714217C22.9423 1.00517 16.7655 1.2829 11.6688 4.41725C6.15054 7.67063 3.26631 13.6352 2.14686 19.7716C1.13277 24.9162 0.289893 30.0475 0.224043 35.2979C-0.210566 42.1618 0.0264936 49.0256 0.619143 55.8762C1.10643 61.854 1.67274 67.8714 3.8853 73.4921C6.24273 79.2186 10.9181 82.7497 16.3441 84.9054C20.8746 86.704 25.9187 87.5504 30.5809 87.8943C35.4011 88.0001 43.3557 88.1059 50.6519 87.7356C52.0216 87.6694 53.6415 87.5636 53.7205 87.5636C57.8691 87.1933 62.202 87.0875 66.311 86.4659C72.4614 85.5137 78.1113 83.3713 81.8385 77.2745C86.7509 69.0352 86.145 58.8651 85.7368 49.6075C85.4734 40.4425 85.0519 31.251 84.4198 22.0463ZM58.1061 25.4452C58.1061 25.4452 53.2201 25.4452 51.2841 25.4452C48.874 25.4452 48.3735 26.4371 48.3735 28.9366C48.3735 31.013 48.3735 34.9805 48.3735 34.9805H58.1061L57.1711 45.5871H48.3867V77.2613H35.783V45.7193H29.2244V34.9805H35.783C35.783 34.9805 35.783 33.4332 35.783 26.5297C35.783 18.5946 40.0106 14.4419 49.3876 14.4419C50.9285 14.4419 58.1061 14.4419 58.1061 14.4419V25.4452Z" fill="#FFFEF5"/>
</g>
<defs>
<clipPath id="clip0_301_2978">
<rect width="86" height="88" fill="white"/>
</clipPath>
</defs>
</svg>
