<svg width="1280" height="545" viewBox="0 0 1280 545" fill="none" xmlns="http://www.w3.org/2000/svg">
<g clip-path="url(#clip0_324_2999)">
<path d="M1280 545L-10 545L-9.99996 90L1280 90.0001L1280 545Z" fill="#B6CCEF"/>
<path d="M1279.57 97.9741C1281.59 85.7636 1276.41 73.1384 1265.93 66.3202C1252.92 57.8429 1239.98 58.9058 1227.33 67.6942C1227.33 67.6942 1227.25 67.6424 1227.18 67.5646C1218.52 59.865 1208.35 55.5875 1196.84 54.5764C1190.08 53.9801 1183.39 54.7319 1176.91 56.8318C1176.47 56.9615 1176.18 56.9096 1175.82 56.6763C1167.68 51.1025 1158.68 48.0175 1148.81 47.6027C1143.08 47.3694 1137.42 47.9916 1131.9 49.6507C1122.13 52.5802 1113.94 57.9466 1107.27 65.6462C1106.96 66.0091 1106.73 65.9573 1106.37 65.8276C1100.9 63.7537 1095.25 63.1574 1089.52 64.2203C1079.56 66.035 1071.99 71.2977 1066.94 80.0602C1066.42 80.9416 1065.98 81.8231 1065.54 82.7304C1063.38 76.1197 1059.11 70.2607 1053.07 66.3202C1040.05 57.8429 1027.12 58.9058 1014.46 67.6942C1014.46 67.6942 1014.39 67.6424 1014.31 67.5646C1005.65 59.865 995.488 55.5874 983.978 54.5764C977.211 53.9801 970.523 54.7319 964.042 56.8318C963.601 56.9614 963.316 56.9096 962.953 56.6763C954.812 51.1025 945.817 48.0175 935.939 47.6027C930.21 47.3694 924.559 47.9915 919.037 49.6507C909.263 52.5802 901.071 57.9466 894.408 65.6462C894.097 66.0091 893.864 65.9572 893.501 65.8276C888.031 63.7537 882.379 63.1574 876.65 64.2203C866.695 66.035 859.125 71.2977 854.07 80.0602C853.681 80.7342 853.318 81.4083 852.981 82.0823C850.751 75.7567 846.578 70.1311 840.745 66.3202C827.73 57.8429 814.794 58.9058 802.143 67.6942C802.143 67.6942 802.065 67.6423 801.987 67.5646C793.329 59.865 783.166 55.5874 771.656 54.5764C764.889 53.9801 758.201 54.7319 751.72 56.8318C751.279 56.9614 750.994 56.9096 750.631 56.6762C742.491 51.1025 733.495 48.0175 723.617 47.6027C717.888 47.3693 712.237 47.9915 706.715 49.6507C696.941 52.5802 688.749 57.9465 682.086 65.6461C681.775 66.0091 681.542 65.9572 681.179 65.8276C675.709 63.7536 670.057 63.1574 664.328 64.2203C654.373 66.035 646.803 71.2977 641.748 80.0602C641.359 80.7342 640.996 81.4082 640.659 82.0823C638.429 75.7567 634.256 70.1311 628.423 66.3202C615.408 57.8428 602.472 58.9057 589.821 67.6942C589.821 67.6942 589.743 67.6423 589.665 67.5645C581.007 59.865 570.844 55.5874 559.334 54.5763C552.567 53.9801 545.879 54.7319 539.398 56.8318C538.957 56.9614 538.672 56.9096 538.309 56.6762C530.169 51.1025 521.173 48.0174 511.296 47.6026C505.566 47.3693 499.915 47.9915 494.393 49.6507C484.619 52.5802 476.427 57.9465 469.764 65.6461C469.453 66.0091 469.22 65.9572 468.857 65.8276C463.387 63.7536 457.735 63.1574 452.006 64.2203C442.051 66.035 434.481 71.2977 429.426 80.0601C428.907 80.9416 428.467 81.823 428.026 82.7304C425.874 76.1196 421.597 70.2607 415.556 66.3201C402.542 57.8428 389.606 58.9057 376.955 67.6941C376.955 67.6941 376.877 67.6423 376.799 67.5645C368.14 59.8649 357.978 55.5874 346.467 54.5763C339.701 53.9801 333.013 54.7319 326.531 56.8318C326.091 56.9614 325.806 56.9095 325.443 56.6762C317.302 51.1024 308.307 48.0174 298.429 47.6026C292.7 47.3693 287.048 47.9915 281.526 49.6507C271.753 52.5801 263.561 57.9465 256.898 65.6461C256.587 66.009 256.354 65.9572 255.991 65.8276C250.521 63.7536 244.869 63.1573 239.14 64.2202C229.185 66.035 221.615 71.2976 216.56 80.0601C216.171 80.7342 215.808 81.4082 215.471 82.0822C213.241 75.7567 209.067 70.131 203.234 66.3201C190.22 57.8428 177.284 58.9057 164.633 67.6941C164.633 67.6941 164.555 67.6423 164.477 67.5645C155.818 59.8649 145.656 55.5874 134.146 54.5763C127.379 53.98 120.691 54.7319 114.21 56.8317C113.769 56.9614 113.484 56.9095 113.121 56.6762C104.98 51.1024 95.9847 48.0174 86.1074 47.6026C80.3781 47.3693 74.7265 47.9915 69.2046 49.6506C59.431 52.5801 51.2389 57.9465 44.5763 65.6461C44.2652 66.009 44.0318 65.9572 43.6688 65.8275C38.1988 63.7536 32.5473 63.1573 26.818 64.2202C16.863 66.0349 9.29296 71.2976 4.23767 80.0601C0.971181 85.6857 -0.376919 91.7002 0.0897217 97.9999L1279.57 98L1279.57 97.9741Z" fill="#B6CCEF"/>
</g>
<defs>
<clipPath id="clip0_324_2999">
<rect width="1280" height="545" fill="white" transform="translate(1280 545) rotate(-180)"/>
</clipPath>
</defs>
</svg>
