<svg width="86" height="88" viewBox="0 0 86 88" fill="none" xmlns="http://www.w3.org/2000/svg">
<g clip-path="url(#clip0_301_2958)">
<path d="M68.7709 24.4817C68.1684 22.9429 67.4611 21.8381 66.3085 20.6806C65.1559 19.5232 64.0557 18.7999 62.5233 18.208C61.3577 17.7477 59.6157 17.2084 56.4068 17.0637C52.9359 16.9059 51.8881 16.8665 43.0866 16.8665C34.2851 16.8665 33.2373 16.9059 29.7664 17.0637C26.5575 17.2084 24.8025 17.7477 23.6499 18.208C22.1044 18.813 21.0173 19.5232 19.8647 20.6806C18.7121 21.8381 17.9917 22.9429 17.4024 24.4817C16.957 25.6522 16.42 27.4015 16.2629 30.6238C16.1057 34.1092 16.0664 35.1614 16.0664 43.9998C16.0664 52.8382 16.1057 53.8904 16.2629 57.3757C16.4069 60.5981 16.9439 62.3605 17.4024 63.5179C18.0048 65.0699 18.7121 66.1615 19.8647 67.3189C21.0173 68.4763 22.1175 69.1997 23.6499 69.7916C24.8156 70.2519 26.5575 70.7912 29.7664 70.9358C33.2373 71.0937 34.2851 71.1331 43.0866 71.1331C51.8881 71.1331 52.9359 71.0937 56.4068 70.9358C59.6157 70.7912 61.3708 70.2519 62.5233 69.7916C64.0557 69.1866 65.1559 68.4763 66.3085 67.3189C67.4611 66.1615 68.1815 65.0567 68.7709 63.5179C69.2293 62.3473 69.7532 60.5981 69.9103 57.3757C70.0675 53.8904 70.1068 52.8382 70.1068 43.9998C70.1068 35.1614 70.0675 34.1092 69.9103 30.6238C69.7532 27.4015 69.2162 25.6522 68.7709 24.4817ZM43.0604 61.019C33.7088 61.019 26.1253 53.4037 26.1253 44.0129C26.1253 34.6222 33.7088 27.0069 43.0604 27.0069C52.412 27.0069 59.9955 34.6222 59.9955 44.0129C59.9955 53.4037 52.412 61.019 43.0604 61.019ZM60.6635 30.3082C58.4762 30.3082 56.708 28.5326 56.708 26.3362C56.708 24.1397 58.4762 22.3641 60.6635 22.3641C62.8508 22.3641 64.6189 24.1397 64.6189 26.3362C64.6189 28.5326 62.8508 30.3082 60.6635 30.3082Z" fill="#FFFEF5"/>
<path d="M84.5859 22.052C81.8939 0.799066 66.9823 -1.27729 48.7982 0.494886C42.1738 0.81229 35.4702 0.12458 28.793 0.719714C22.9867 1.01067 16.7978 1.2884 11.6909 4.42277C6.16173 7.67617 3.2718 13.6407 2.15013 19.7772C1.13404 24.9218 0.289489 30.0532 0.223508 35.3036C-0.211961 42.1675 0.0255675 49.0314 0.61939 55.882C1.10764 61.8598 1.67507 67.8773 3.89201 73.498C6.2541 79.2245 10.9387 82.7556 16.3755 84.9114C20.9149 86.71 25.969 87.5564 30.6404 87.9002C35.4702 88.006 43.4406 88.1119 50.7512 87.7415C52.1236 87.6754 53.7467 87.5696 53.8259 87.5696C57.9826 87.1993 62.3241 87.0935 66.4413 86.4719C72.6039 85.5197 78.265 83.3772 81.9995 77.2804C86.9216 69.0411 86.3146 58.8709 85.9055 49.6133C85.6548 40.4482 85.2193 31.2567 84.5859 22.052ZM76.1008 57.7865C75.9425 61.3308 75.375 63.751 74.5569 65.8671C73.7123 68.0492 72.5775 69.914 70.73 71.7655C68.8826 73.617 67.0351 74.7544 64.8446 75.6008C62.7332 76.4208 60.3183 76.9895 56.7818 77.1482C53.232 77.3069 52.1104 77.3465 43.0843 77.3465C34.0582 77.3465 32.9365 77.3069 29.3868 77.1482C25.8502 76.9895 23.4354 76.4208 21.324 75.6008C19.1335 74.7544 17.286 73.617 15.4386 71.7655C13.5911 69.914 12.4562 68.0624 11.6117 65.8671C10.7935 63.751 10.2261 61.3308 10.0678 57.7865C9.90941 54.2289 9.86982 53.1047 9.86982 44.0587C9.86982 35.0127 9.90941 33.8885 10.0678 30.3309C10.2261 26.7866 10.7935 24.3664 11.6117 22.2503C12.4562 20.055 13.5911 18.2034 15.4386 16.3519C17.286 14.5004 19.1335 13.363 21.324 12.5166C23.4354 11.6966 25.8502 11.1279 29.3868 10.9692C32.9365 10.8105 34.0582 10.7709 43.0843 10.7709C52.1104 10.7709 53.232 10.8105 56.7818 10.9692C60.3183 11.1279 62.7332 11.6966 64.8446 12.5166C67.0351 13.363 68.8826 14.5004 70.73 16.3519C72.5775 18.2034 73.7123 20.055 74.5569 22.2503C75.375 24.3664 75.9425 26.7866 76.1008 30.3309C76.2592 33.8885 76.2988 35.0127 76.2988 44.0587C76.2988 53.1047 76.2724 54.2289 76.1008 57.7865Z" fill="#FFFEF5"/>
<path d="M43.0869 33.0002C37.0419 33.0002 32.1328 37.9299 32.1328 44.0002C32.1328 50.0706 37.0419 55.0002 43.0869 55.0002C49.132 55.0002 54.0411 50.0706 54.0411 44.0002C54.0411 37.9299 49.145 33.0002 43.0869 33.0002Z" fill="#FFFEF5"/>
</g>
<defs>
<clipPath id="clip0_301_2958">
<rect width="86" height="88" fill="white"/>
</clipPath>
</defs>
</svg>
