<svg width="1280" height="123" viewBox="0 0 1280 123" fill="none" xmlns="http://www.w3.org/2000/svg">
<g clip-path="url(#clip0_324_2998)">
<mask id="mask0_324_2998" style="mask-type:luminance" maskUnits="userSpaceOnUse" x="0" y="0" width="1280" height="123">
<path d="M1280 0H0V123H1280V0Z" fill="white"/>
</mask>
<g mask="url(#mask0_324_2998)">
<path d="M0 0H1290V31H0V0Z" fill="#BACBED"/>
<path d="M0.430969 25.0259C-1.59115 37.2364 3.59376 49.8616 14.0673 56.6798C27.0814 65.1571 40.0177 64.0942 52.6689 55.3058C52.6689 55.3058 52.7467 55.3576 52.8244 55.4354C61.4832 63.135 71.6457 67.4125 83.1561 68.4236C89.9224 69.0199 96.611 68.268 103.092 66.1682C103.533 66.0385 103.818 66.0904 104.181 66.3237C112.321 71.8975 121.317 74.9825 131.194 75.3973C136.924 75.6306 142.575 75.0084 148.097 73.3493C157.871 70.4198 166.063 65.0534 172.725 57.3538C173.036 56.9909 173.27 57.0427 173.633 57.1723C179.103 59.2463 184.754 59.8426 190.484 58.7797C200.439 56.965 208.009 51.7023 213.064 42.9398C213.582 42.0583 214.023 41.1769 214.464 40.2695C216.616 46.8803 220.893 52.7393 226.934 56.6798C239.948 65.1571 252.884 64.0942 265.535 55.3058C265.535 55.3058 265.613 55.3576 265.691 55.4354C274.35 63.135 284.512 67.4125 296.022 68.4236C302.789 69.0199 309.477 68.268 315.958 66.1682C316.399 66.0385 316.684 66.0904 317.047 66.3237C325.188 71.8975 334.183 74.9825 344.061 75.3973C349.79 75.6306 355.441 75.0084 360.963 73.3493C370.737 70.4198 378.929 65.0534 385.592 57.3538C385.903 56.9909 386.136 57.0427 386.499 57.1723C391.969 59.2463 397.621 59.8426 403.35 58.7797C413.305 56.965 420.875 51.7023 425.93 42.9398C426.319 42.2657 426.682 41.5917 427.019 40.9177C429.249 47.2432 433.422 52.8689 439.256 56.6798C452.27 65.1571 465.206 64.0942 477.857 55.3058C477.857 55.3058 477.935 55.3576 478.013 55.4354C486.671 63.135 496.834 67.4125 508.344 68.4236C515.111 69.0199 521.799 68.268 528.28 66.1682C528.721 66.0385 529.006 66.0904 529.369 66.3237C537.509 71.8975 546.505 74.9825 556.383 75.3973C562.112 75.6306 567.763 75.0084 573.285 73.3493C583.059 70.4198 591.251 65.0534 597.914 57.3538C598.225 56.9909 598.458 57.0427 598.821 57.1723C604.291 59.2463 609.943 59.8426 615.672 58.7797C625.627 56.965 633.197 51.7023 638.252 42.9398C638.641 42.2657 639.004 41.5917 639.341 40.9177C641.571 47.2432 645.744 52.8689 651.577 56.6798C664.591 65.1571 677.528 64.0942 690.179 55.3058C690.179 55.3058 690.257 55.3576 690.335 55.4354C698.993 63.135 709.156 67.4125 720.666 68.4236C727.433 69.0199 734.121 68.268 740.602 66.1682C741.043 66.0385 741.328 66.0904 741.691 66.3237C749.831 71.8975 758.827 74.9825 768.704 75.3973C774.434 75.6306 780.085 75.0084 785.607 73.3493C795.381 70.4198 803.573 65.0534 810.236 57.3538C810.547 56.9909 810.78 57.0427 811.143 57.1723C816.613 59.2463 822.264 59.8426 827.994 58.7797C837.949 56.965 845.519 51.7023 850.574 42.9398C851.093 42.0583 851.533 41.1769 851.974 40.2695C854.126 46.8803 858.403 52.7393 864.444 56.6798C877.458 65.1571 890.394 64.0942 903.045 55.3058C903.045 55.3058 903.123 55.3576 903.201 55.4354C911.86 63.135 922.022 67.4125 933.533 68.4236C940.299 69.0199 946.987 68.268 953.469 66.1682C953.909 66.0385 954.194 66.0904 954.557 66.3237C962.698 71.8975 971.694 74.9825 981.571 75.3973C987.3 75.6306 992.952 75.0084 998.474 73.3493C1008.25 70.4198 1016.44 65.0534 1023.1 57.3538C1023.41 56.9909 1023.65 57.0427 1024.01 57.1723C1029.48 59.2463 1035.13 59.8426 1040.86 58.7797C1050.82 56.965 1058.39 51.7023 1063.44 42.9398C1063.83 42.2657 1064.19 41.5917 1064.53 40.9177C1066.76 47.2432 1070.93 52.8689 1076.77 56.6798C1089.78 65.1571 1102.72 64.0942 1115.37 55.3058C1115.37 55.3058 1115.45 55.3576 1115.52 55.4354C1124.18 63.135 1134.34 67.4125 1145.85 68.4236C1152.62 69.0199 1159.31 68.268 1165.79 66.1682C1166.23 66.0385 1166.52 66.0904 1166.88 66.3237C1175.02 71.8975 1184.02 74.9825 1193.89 75.3973C1199.62 75.6306 1205.27 75.0084 1210.8 73.3493C1220.57 70.4198 1228.76 65.0534 1235.42 57.3538C1235.73 56.9909 1235.97 57.0427 1236.33 57.1723C1241.8 59.2463 1247.45 59.8426 1253.18 58.7797C1263.14 56.965 1270.71 51.7023 1275.76 42.9398C1279.03 37.3142 1280.38 31.2997 1279.91 25H0.430969V25.0259Z" fill="#B6CCEF"/>
</g>
</g>
<path d="M0 0H1280V26H0V0Z" fill="#B6CCEF"/>
<defs>
<clipPath id="clip0_324_2998">
<rect width="1280" height="123" fill="white"/>
</clipPath>
</defs>
</svg>
